<svg xmlns="http://www.w3.org/2000/svg" width="257" height="48" viewBox="0 0 257 48">
    <defs>
        <linearGradient id="jpo1wwlmha" x1="100%" x2="33.641%" y1="39.02%" y2="50%">
            <stop offset="0%" stop-color="#FF810A"/>
            <stop offset="100%" stop-color="#FF043C"/>
        </linearGradient>
    </defs>
    <g fill="none" fill-rule="evenodd">
        <path fill="url(#jpo1wwlmha)" d="M78.532 0c13.01 0 22.647 10.586 22.647 23.597 0 13.032-10.534 23.596-23.528 23.596h-.035l-.388-.004c-12.8-.226-23.107-10.702-23.107-23.592h11.757c0 6.464 5.24 11.705 11.704 11.705s11.705-5.241 11.705-11.705-5.24-11.705-11.705-11.705H47.824v11.705L24.147.001zm-42.43 20.584l11.73 11.73v14.811l-11.73-11.73V20.584zM15.523 0l11.73 11.73h-15.05L.471 0h15.051z"/>
        <path fill="#171717" fill-rule="nonzero" d="M131.457 32.273V18.755h4.545v-3.22h-13.115v3.22h4.498v13.518h4.072zm12.216.166c1.104 0 2.106-.21 3.006-.628.9-.418 1.641-.994 2.225-1.728.584-.734.963-1.566 1.137-2.497h-4.285c-.126.473-.387.86-.781 1.16-.395.3-.892.45-1.492.45-.71 0-1.294-.217-1.752-.652-.457-.434-.71-1.148-.757-2.142h9.161c.08-.395.119-.758.119-1.089 0-1.263-.272-2.38-.817-3.35-.544-.97-1.314-1.724-2.308-2.26-.994-.537-2.147-.806-3.456-.806-1.295 0-2.447.273-3.457.817-1.01.545-1.795 1.326-2.355 2.344-.56 1.018-.84 2.221-.84 3.61 0 1.373.283 2.573.851 3.599.569 1.025 1.354 1.81 2.356 2.355 1.002.545 2.15.817 3.445.817zm2.485-7.741h-5.16c.063-.853.339-1.5.828-1.942.49-.442 1.105-.663 1.847-.663.71 0 1.305.217 1.787.651.481.434.714 1.085.698 1.954zm11.222 7.74c1.01 0 1.878-.228 2.604-.686.726-.457 1.262-1.08 1.61-1.87v2.391h4.024v-13.21h-4.025v2.391c-.347-.789-.883-1.412-1.61-1.87-.725-.458-1.593-.687-2.603-.687-1.09 0-2.064.273-2.924.817-.86.545-1.539 1.326-2.036 2.344-.497 1.018-.746 2.221-.746 3.61 0 1.373.249 2.573.746 3.599.497 1.025 1.176 1.81 2.036 2.355.86.545 1.835.817 2.924.817zm1.302-3.55c-.868 0-1.567-.284-2.096-.852-.528-.569-.793-1.358-.793-2.368 0-1.01.265-1.8.793-2.367.53-.568 1.228-.852 2.096-.852.852 0 1.55.288 2.095.864.544.576.816 1.36.816 2.355 0 .979-.272 1.76-.816 2.344-.545.584-1.243.876-2.095.876zm13.778 3.385v-7.007c0-.916.236-1.618.71-2.107.473-.49 1.113-.734 1.917-.734.774 0 1.381.233 1.823.698.442.466.663 1.117.663 1.953v7.197h4.048v-7.007c0-.9.233-1.598.699-2.095.465-.498 1.1-.746 1.905-.746.774 0 1.385.233 1.835.698.45.466.675 1.117.675 1.953v7.197h4.024v-7.67c0-1.784-.465-3.176-1.396-4.179-.932-1.002-2.21-1.503-3.836-1.503-.962 0-1.842.245-2.64.734-.796.49-1.423 1.144-1.881 1.965-.395-.868-.979-1.535-1.752-2-.773-.466-1.665-.699-2.675-.699-.963 0-1.803.213-2.521.64-.718.425-1.251 1.01-1.598 1.751v-2.249h-4.049v13.21h4.049zm25.046 0v-5.871h2.51c1.31 0 2.422-.233 3.338-.698.915-.466 1.606-1.105 2.071-1.918.466-.813.699-1.74.699-2.782 0-1.673-.521-3.002-1.563-3.989-1.042-.986-2.557-1.48-4.545-1.48h-6.558v16.738h4.048zm2.06-9.114h-2.06v-4.356h2.06c1.626 0 2.438.734 2.438 2.201 0 1.437-.812 2.155-2.438 2.155zm13.305 9.256c.994 0 1.866-.229 2.615-.686.75-.458 1.314-1.074 1.693-1.847v2.391h4.072v-13.21h-4.072v7.008c0 .962-.237 1.704-.71 2.225-.474.52-1.12.781-1.941.781-.79 0-1.417-.248-1.882-.746-.466-.497-.699-1.195-.699-2.095v-7.173h-4.024v7.67c0 1.768.446 3.157 1.337 4.167.892 1.01 2.095 1.515 3.61 1.515zm15.222-.142V14.755h-4.048v17.518h4.048zm8.546.166c1.057 0 1.973-.166 2.746-.497.773-.332 1.365-.79 1.776-1.373.41-.584.615-1.255.615-2.013 0-.93-.237-1.673-.71-2.225-.474-.552-1.034-.95-1.681-1.196-.647-.244-1.476-.485-2.486-.722-.93-.205-1.613-.41-2.047-.615-.434-.205-.651-.513-.651-.923 0-.363.118-.643.355-.84.236-.198.584-.297 1.041-.297.584 0 1.07.154 1.456.462.387.308.635.73.746 1.266h3.788c-.253-1.373-.88-2.477-1.882-3.314-1.003-.836-2.34-1.255-4.013-1.255-1.641 0-2.912.367-3.812 1.101-.9.734-1.349 1.693-1.349 2.877 0 .915.229 1.637.687 2.166.457.528 1.002.911 1.633 1.148.631.237 1.436.458 2.415.663.978.22 1.685.43 2.119.627.434.197.65.525.65.983 0 .347-.118.627-.354.84-.237.213-.584.32-1.042.32-.663 0-1.204-.15-1.622-.45-.418-.3-.659-.734-.722-1.302h-3.906c.237 1.468.892 2.596 1.965 3.385 1.073.79 2.501 1.184 4.285 1.184zm13.352 0c1.105 0 2.107-.21 3.006-.628.9-.418 1.642-.994 2.226-1.728.584-.734.962-1.566 1.136-2.497h-4.285c-.126.473-.387.86-.781 1.16-.395.3-.892.45-1.492.45-.71 0-1.294-.217-1.751-.652-.458-.434-.71-1.148-.758-2.142h9.162c.079-.395.118-.758.118-1.089 0-1.263-.272-2.38-.817-3.35-.544-.97-1.314-1.724-2.308-2.26-.994-.537-2.146-.806-3.456-.806-1.294 0-2.446.273-3.457.817-1.01.545-1.795 1.326-2.355 2.344-.56 1.018-.84 2.221-.84 3.61 0 1.373.284 2.573.852 3.599.568 1.025 1.353 1.81 2.355 2.355 1.002.545 2.15.817 3.445.817zm2.486-7.741h-5.161c.063-.853.339-1.5.828-1.942.49-.442 1.105-.663 1.847-.663.71 0 1.306.217 1.787.651.482.434.714 1.085.699 1.954z"/>
    </g>
</svg>
